<?xml version="1.0" standalone="no"?>
<!DOCTYPE svg PUBLIC "-//W3C//DTD SVG 20010904//EN"
 "http://www.w3.org/TR/2001/REC-SVG-20010904/DTD/svg10.dtd">
<svg version="1.0" xmlns="http://www.w3.org/2000/svg"
 width="258.000000pt" height="121.000000pt" viewBox="0 0 258.000000 121.000000"
 preserveAspectRatio="xMidYMid meet">

<g transform="translate(0.000000,121.000000) scale(0.100000,-0.100000)"
fill="#000000" stroke="none">
<path d="M801 1195 c-275 -77 -417 -399 -248 -562 84 -82 176 -108 348 -101
83 4 130 11 174 27 33 12 65 23 70 24 6 1 12 5 15 8 3 4 26 23 53 43 46 35 49
36 76 21 34 -17 68 -10 138 30 36 20 48 23 55 13 4 -7 8 -17 8 -21 0 -4 16
-15 35 -23 40 -16 69 -12 135 22 44 22 118 89 109 98 -2 3 -35 -11 -73 -30
-73 -37 -95 -41 -114 -22 -25 25 -12 44 46 68 114 47 180 111 151 146 -37 45
-179 -13 -262 -107 -61 -70 -120 -111 -150 -107 -32 4 -28 28 13 73 51 57 177
236 189 269 6 15 11 38 11 52 0 90 -204 -95 -289 -263 -17 -33 -31 -68 -31
-77 0 -21 -122 -121 -190 -154 -52 -25 -63 -27 -195 -27 -136 0 -142 1 -200
30 -109 54 -148 152 -111 277 54 187 285 295 497 232 70 -21 134 -83 145 -139
14 -79 -29 -171 -104 -219 -46 -30 -73 -38 -91 -27 -11 7 -4 33 35 135 26 69
51 126 54 126 4 0 5 11 2 25 -4 21 -10 25 -38 25 -28 0 -36 -5 -44 -26 l-10
-26 -30 25 c-16 14 -43 28 -60 32 -89 19 -211 -58 -259 -165 -68 -149 56 -270
201 -197 l45 23 17 -23 c25 -33 104 -32 173 3 177 87 236 287 121 405 -65 67
-134 92 -258 96 -72 2 -122 -2 -159 -12z m675 -213 c-19 -26 -52 -63 -72 -82
l-37 -35 28 53 c34 63 106 143 112 124 3 -6 -11 -33 -31 -60z m-531 6 c25 -19
27 -26 23 -74 -5 -63 -35 -111 -92 -148 -94 -61 -172 -11 -144 92 21 81 94
150 159 152 15 0 39 -10 54 -22z m755 -108 c-11 -21 -88 -70 -110 -70 -17 0
25 46 65 71 41 26 59 25 45 -1z"/>
<path d="M1834 915 c-86 -62 -102 -105 -25 -65 44 22 45 21 41 -35 -2 -30 -42
-74 -67 -75 -15 0 -64 -70 -57 -82 6 -10 39 6 79 40 l29 24 11 -30 c16 -48 30
-58 61 -43 58 26 146 112 131 128 -3 3 -26 -7 -51 -22 -50 -29 -66 -27 -66 12
0 29 55 93 81 93 18 0 69 50 69 68 0 21 -26 13 -82 -28 l-56 -40 1 48 c2 40
-1 47 -18 49 -11 2 -48 -17 -81 -42z"/>
<path d="M370 425 c-19 -20 -25 -38 -25 -70 0 -59 33 -95 87 -95 34 0 38 3 38
25 0 21 -5 25 -30 25 -36 0 -54 28 -41 63 11 28 39 41 65 31 14 -5 17 -2 14
17 -2 20 -9 24 -43 27 -33 2 -45 -2 -65 -23z"/>
<path d="M515 425 c-19 -18 -25 -35 -25 -70 0 -59 32 -95 85 -95 54 0 85 36
85 98 0 38 -5 53 -23 70 -33 31 -90 30 -122 -3z m83 -27 c14 -14 16 -57 3 -76
-4 -8 -19 -12 -32 -10 -19 2 -25 10 -27 36 -5 50 27 79 56 50z"/>
<path d="M678 375 c-1 -41 -2 -83 -2 -92 -1 -12 6 -18 19 -18 16 0 21 9 26 40
5 34 6 36 8 10 3 -72 48 -75 67 -5 l12 45 1 -47 c1 -41 4 -48 21 -48 18 0 20
7 22 75 1 41 2 83 2 93 1 12 -8 18 -31 20 -30 3 -32 1 -45 -45 l-14 -48 -8 48
c-7 46 -8 47 -42 47 l-34 0 -2 -75z"/>
<path d="M877 363 c-7 -95 -5 -103 24 -103 15 0 19 7 19 39 0 34 2 38 20 34
44 -12 75 50 50 98 -8 15 -21 19 -59 19 l-48 0 -6 -87z m71 30 c-4 -22 -22
-20 -26 1 -2 10 3 16 13 16 10 0 15 -7 13 -17z"/>
<path d="M1010 371 c0 -71 2 -82 22 -95 28 -20 78 -21 103 -2 16 12 20 29 23
95 l4 81 -26 0 c-25 0 -26 -2 -26 -57 0 -66 -10 -89 -35 -79 -13 5 -16 18 -15
58 2 77 2 78 -25 78 -25 0 -25 -1 -25 -79z"/>
<path d="M1170 429 c0 -12 8 -23 20 -26 18 -5 20 -14 20 -74 0 -67 1 -69 25
-69 23 0 24 3 27 73 3 68 4 72 26 69 18 -3 22 2 22 22 0 25 -2 26 -70 26 -64
0 -70 -2 -70 -21z"/>
<path d="M1355 418 c-7 -18 -23 -55 -34 -81 -27 -63 -27 -77 4 -77 18 0 26 7
31 25 9 34 61 36 66 3 2 -17 11 -24 31 -26 24 -3 28 0 23 15 -2 10 -15 53 -27
96 -21 73 -23 77 -51 77 -23 0 -32 -6 -43 -32z m45 -43 c0 -8 -4 -15 -10 -15
-5 0 -7 7 -4 15 4 8 8 15 10 15 2 0 4 -7 4 -15z"/>
<path d="M1490 355 l0 -95 38 0 c58 0 82 10 97 41 25 47 15 118 -19 141 -6 4
-35 8 -63 8 l-53 0 0 -95z m94 33 c14 -22 -3 -72 -27 -76 -14 -3 -17 5 -17 48
0 42 3 51 16 48 9 -2 22 -11 28 -20z"/>
<path d="M1675 425 c-19 -18 -25 -35 -25 -70 0 -35 6 -52 25 -70 28 -29 79
-33 112 -10 25 18 44 74 36 107 -17 68 -100 92 -148 43z m84 -29 c7 -8 11 -30
9 -48 -2 -28 -7 -34 -30 -36 -22 -3 -29 2 -34 23 -13 52 27 95 55 61z"/>
<path d="M1840 355 c0 -95 0 -95 25 -95 23 0 25 4 26 48 l0 47 15 -48 c12 -39
19 -47 39 -47 29 0 28 -2 14 39 -9 25 -8 38 6 67 15 32 15 37 1 60 -14 21 -24
24 -71 24 l-55 0 0 -95z m85 35 c0 -8 -8 -16 -17 -18 -13 -2 -18 3 -18 18 0
15 5 20 18 18 9 -2 17 -10 17 -18z"/>
<path d="M1990 355 l0 -95 60 0 c57 0 60 1 60 25 0 22 -4 25 -35 25 -19 0 -35
5 -35 10 0 6 14 10 30 10 25 0 30 4 30 25 0 21 -5 25 -30 25 -21 0 -30 5 -30
16 0 12 9 15 38 12 31 -2 37 0 37 17 0 18 -8 20 -62 23 l-63 3 0 -96z"/>
<path d="M2142 438 c-19 -19 -14 -54 13 -86 32 -38 31 -42 -5 -42 -33 0 -35
-3 -20 -31 13 -23 62 -26 84 -3 23 22 20 52 -9 86 -27 32 -25 52 6 43 15 -5
19 -1 19 19 0 23 -4 26 -38 26 -21 0 -43 -5 -50 -12z"/>
<path d="M30 75 c-17 -37 -30 -69 -30 -71 0 -2 9 -4 21 -4 12 0 23 8 26 20 7
26 43 26 50 0 3 -11 14 -20 24 -20 23 0 23 1 0 75 -14 46 -24 61 -40 63 -18 3
-26 -8 -51 -63z m47 3 c-3 -8 -6 -5 -6 6 -1 11 2 17 5 13 3 -3 4 -12 1 -19z"/>
<path d="M154 114 c-5 -18 0 -31 16 -48 21 -23 14 -46 -10 -31 -5 3 -10 -3
-10 -14 0 -30 55 -29 71 0 9 18 7 27 -10 50 -25 34 -26 39 -6 39 8 0 15 7 15
15 0 10 -10 15 -30 15 -23 0 -31 -5 -36 -26z"/>
<path d="M240 70 l0 -70 45 0 c33 0 45 4 45 15 0 9 -9 15 -25 15 -31 0 -33 17
-2 22 12 2 22 10 22 18 0 8 -10 16 -22 18 -34 5 -28 22 7 22 20 0 30 5 30 15
0 11 -12 15 -50 15 l-50 0 0 -70z"/>
<path d="M357 133 c-12 -12 -7 -50 8 -63 23 -19 19 -43 -6 -35 -17 6 -20 3
-17 -12 2 -13 12 -18 38 -18 29 0 36 4 38 23 2 13 -4 34 -12 47 -20 30 -20 35
-1 35 8 0 15 7 15 15 0 15 -50 22 -63 8z"/>
<path d="M457 123 c-15 -18 -20 -41 -18 -75 2 -26 30 -48 62 -48 58 0 89 67
53 118 -19 27 -74 30 -97 5z m71 -41 c4 -23 -13 -52 -29 -52 -18 0 -30 39 -19
61 14 26 44 21 48 -9z"/>
<path d="M580 70 c0 -63 2 -70 20 -70 16 0 20 7 21 33 l1 32 10 -32 c7 -22 17
-33 29 -33 21 0 22 4 10 35 -5 13 -3 28 6 42 24 37 2 63 -52 63 l-45 0 0 -70z
m68 28 c-6 -18 -28 -21 -28 -4 0 9 7 16 16 16 9 0 14 -5 12 -12z"/>
<path d="M700 70 c0 -52 3 -70 14 -70 8 0 16 17 20 46 10 79 8 94 -14 94 -18
0 -20 -7 -20 -70z"/>
<path d="M767 75 c-32 -78 -32 -75 -8 -75 11 0 23 9 26 20 3 11 15 20 25 20
10 0 22 -9 25 -20 4 -11 15 -20 27 -20 14 0 18 5 14 15 -3 9 -13 40 -22 70
-13 46 -19 55 -38 55 -18 0 -27 -12 -49 -65z m53 10 c0 -8 -4 -15 -10 -15 -5
0 -7 7 -4 15 4 8 8 15 10 15 2 0 4 -7 4 -15z"/>
<path d="M920 128 c1 -7 7 -24 15 -38 8 -14 14 -40 15 -57 0 -26 4 -33 20 -33
16 0 20 7 20 30 0 16 9 44 20 62 25 41 25 48 2 48 -11 0 -24 -10 -30 -22 l-11
-23 -7 23 c-7 23 -44 32 -44 10z"/>
<path d="M1080 116 c0 -13 -3 -44 -6 -70 -6 -38 -4 -46 9 -46 10 0 17 11 20
33 l3 32 8 -32 c12 -46 39 -44 53 4 l11 38 -1 -35 c-2 -33 0 -35 35 -38 29 -3
38 1 43 17 8 27 45 28 52 1 3 -11 14 -20 24 -20 23 0 23 1 0 75 -14 46 -24 61
-40 63 -18 3 -26 -8 -50 -60 l-30 -63 0 63 c-1 58 -2 62 -25 62 -17 0 -26 -8
-33 -32 l-11 -33 -7 33 c-6 25 -13 32 -31 32 -19 0 -24 -5 -24 -24z m207 -38
c-3 -8 -6 -5 -6 6 -1 11 2 17 5 13 3 -3 4 -12 1 -19z"/>
<path d="M1360 70 c0 -54 3 -70 14 -70 10 0 16 13 18 38 l3 37 20 -37 c19 -39
48 -50 59 -22 3 9 6 40 6 70 0 41 -4 54 -15 54 -8 0 -15 -3 -16 -7 -5 -53 -14
-60 -29 -23 -9 21 -19 30 -36 30 -23 0 -24 -3 -24 -70z"/>
<path d="M1490 125 c0 -8 7 -15 15 -15 12 0 15 -13 15 -56 0 -47 3 -55 18 -52
13 2 18 15 20 56 2 37 7 52 18 52 7 0 14 7 14 15 0 11 -12 15 -50 15 -38 0
-50 -4 -50 -15z"/>
<path d="M1600 70 l0 -70 45 0 c33 0 45 4 45 15 0 9 -9 15 -25 15 -14 0 -25 5
-25 10 0 6 9 10 20 10 13 0 20 7 20 20 0 13 -7 20 -20 20 -11 0 -20 5 -20 10
0 6 11 10 25 10 16 0 25 6 25 15 0 11 -12 15 -45 15 l-45 0 0 -70z"/>
<path d="M1710 70 c0 -56 3 -70 15 -70 11 0 15 11 15 38 l1 37 20 -37 c26 -50
59 -53 59 -5 0 17 3 49 6 70 6 33 4 37 -15 37 -17 0 -21 -6 -22 -37 l-1 -38
-15 38 c-12 28 -21 37 -39 37 -23 0 -24 -3 -24 -70z"/>
<path d="M1840 70 c0 -63 2 -70 20 -70 18 0 20 7 20 70 0 63 -2 70 -20 70 -18
0 -20 -7 -20 -70z"/>
<path d="M1900 86 c0 -30 -3 -61 -6 -70 -4 -11 0 -16 14 -16 15 0 22 8 25 27
l4 28 2 -27 c2 -44 37 -37 49 9 l10 38 1 -37 c1 -27 6 -38 16 -38 12 0 15 14
15 70 0 67 -1 70 -24 70 -19 0 -25 -7 -31 -37 l-8 -38 -10 38 c-7 30 -14 37
-33 37 -22 0 -24 -4 -24 -54z"/>
<path d="M2050 70 c0 -63 2 -70 20 -70 18 0 20 7 20 70 0 63 -2 70 -20 70 -18
0 -20 -7 -20 -70z"/>
<path d="M2110 101 c0 -21 -3 -53 -6 -70 l-6 -31 51 0 c39 0 51 4 51 15 0 10
-10 15 -30 15 -16 0 -30 5 -30 10 0 6 11 10 25 10 18 0 25 5 25 20 0 13 -7 20
-20 20 -11 0 -20 5 -20 10 0 6 11 10 25 10 16 0 25 6 25 15 0 11 -12 15 -45
15 l-45 0 0 -39z"/>
<path d="M2216 94 c-10 -79 -8 -94 14 -94 16 0 20 7 21 38 l0 37 16 -37 c11
-29 21 -38 39 -38 23 0 24 3 24 70 0 54 -3 70 -14 70 -10 0 -16 -13 -18 -37
l-3 -38 -17 38 c-25 55 -53 51 -62 -9z"/>
<path d="M2340 125 c0 -8 7 -15 15 -15 12 0 15 -13 15 -55 0 -48 2 -55 20 -55
18 0 20 7 20 55 0 48 2 55 20 55 11 0 20 7 20 15 0 12 -13 15 -55 15 -42 0
-55 -3 -55 -15z"/>
<path d="M2466 118 c-22 -30 -20 -81 2 -101 27 -25 78 -22 96 5 22 30 20 81
-2 101 -27 25 -78 22 -96 -5z m69 -48 c0 -28 -4 -35 -20 -35 -13 0 -21 8 -23
23 -5 34 5 54 25 50 13 -2 18 -13 18 -38z"/>
</g>
</svg>
