<?xml version="1.0" standalone="no"?>
<!DOCTYPE svg PUBLIC "-//W3C//DTD SVG 20010904//EN"
 "http://www.w3.org/TR/2001/REC-SVG-20010904/DTD/svg10.dtd">
<svg version="1.0" xmlns="http://www.w3.org/2000/svg"
 width="344.000000pt" height="162.000000pt" viewBox="0 0 344.000000 162.000000"
 preserveAspectRatio="xMidYMid meet">

<g transform="translate(0.000000,162.000000) scale(0.100000,-0.100000)"
fill="#000000" stroke="none">
<path d="M1090 1604 c-211 -45 -398 -229 -440 -431 -27 -129 15 -274 99 -344
54 -45 147 -87 231 -105 117 -25 330 -15 436 19 84 28 185 87 242 140 17 17
32 27 32 21 0 -5 14 -18 30 -28 28 -16 34 -16 83 -2 28 8 77 30 107 49 l56 33
15 -31 c8 -16 32 -38 52 -48 32 -16 44 -17 91 -7 61 12 152 67 205 123 50 53
34 60 -38 17 -35 -21 -86 -44 -113 -50 -43 -11 -51 -10 -68 5 -40 36 -26 59
53 91 39 16 78 28 85 27 7 0 11 1 8 4 -3 3 15 19 39 34 45 29 85 80 85 110 0
27 -30 44 -76 42 -89 -3 -235 -93 -300 -183 -36 -50 -143 -130 -174 -130 -9 0
-25 9 -35 20 -17 19 -17 21 31 72 27 29 52 52 56 50 5 -1 7 2 5 6 -1 5 39 67
89 138 102 144 119 174 129 225 5 26 2 39 -9 48 -32 27 -152 -67 -261 -202
-65 -81 -155 -242 -155 -277 0 -36 -192 -187 -278 -220 -105 -40 -285 -48
-412 -18 -174 41 -272 164 -257 323 7 74 39 164 71 198 13 14 22 28 20 30 -9
9 103 100 156 127 177 89 397 85 535 -10 124 -85 127 -268 5 -390 -55 -55
-141 -95 -170 -80 -11 6 -20 12 -20 14 0 3 32 87 70 189 39 101 70 192 70 201
0 14 -9 17 -47 14 -43 -3 -50 -7 -63 -35 l-15 -32 -32 29 c-18 16 -51 34 -74
40 -163 44 -380 -137 -382 -318 -1 -168 168 -248 315 -148 l35 23 17 -28 c21
-35 50 -43 125 -36 78 7 163 50 233 119 78 75 111 148 116 251 4 68 1 84 -23
132 -44 91 -142 160 -267 190 -78 18 -232 18 -318 -1z m930 -199 c0 -30 -84
-138 -197 -255 -8 -8 -3 9 11 38 15 28 31 52 37 52 5 0 8 4 5 9 -7 11 50 91
65 91 5 0 8 4 5 9 -4 5 8 21 25 35 29 24 49 33 49 21z m-771 -70 c76 -39 60
-175 -33 -273 -70 -75 -170 -95 -220 -46 -27 27 -31 43 -27 104 3 45 38 123
51 115 5 -3 7 0 5 7 -6 16 47 70 90 92 38 20 98 20 134 1z m1031 -134 c0 -29
-87 -98 -147 -116 -34 -10 -28 8 16 51 56 54 131 91 131 65z"/>
<path d="M2494 1259 c-78 -50 -144 -109 -144 -130 0 -10 2 -19 3 -19 2 0 28
13 58 30 30 16 57 30 60 30 3 0 3 -26 1 -57 -3 -53 -7 -61 -45 -94 -23 -20
-45 -35 -48 -33 -4 2 -12 -3 -19 -11 -7 -8 -16 -12 -21 -9 -5 3 -8 2 -7 -3 1
-4 -6 -23 -15 -41 -21 -38 -15 -57 14 -42 11 6 25 8 31 4 6 -4 8 -3 5 3 -4 6
15 29 42 51 l48 41 1 -35 c4 -94 63 -105 155 -28 16 13 34 21 40 17 7 -3 9 -3
5 2 -4 4 8 25 27 47 30 33 46 68 30 68 -3 0 -30 -16 -59 -36 -68 -45 -90 -43
-94 11 -3 36 2 45 41 83 29 29 53 43 74 45 17 1 29 5 27 8 -2 3 10 19 26 34
34 32 40 65 12 65 -9 0 -51 -24 -92 -54 -41 -30 -76 -54 -77 -52 -1 1 1 25 6
53 8 53 0 83 -23 83 -6 0 -34 -14 -62 -31z"/>
<path d="M523 595 c-41 -18 -63 -61 -63 -126 0 -45 4 -55 35 -86 31 -31 39
-34 82 -31 45 3 48 5 51 33 3 30 2 31 -36 27 -47 -5 -64 13 -64 65 0 49 31 76
77 67 31 -6 32 -5 27 23 -3 15 -10 31 -16 35 -17 12 -58 9 -93 -7z"/>
<path d="M713 594 c-71 -35 -85 -161 -24 -216 24 -21 41 -28 74 -28 74 0 117
50 117 137 0 55 -17 86 -60 108 -37 19 -67 19 -107 -1z m77 -54 c45 -24 26
-130 -23 -130 -13 0 -28 5 -35 12 -18 18 -15 88 5 110 18 21 27 22 53 8z"/>
<path d="M2263 594 c-39 -20 -63 -68 -63 -129 0 -40 5 -52 34 -81 28 -28 41
-34 78 -34 73 0 118 50 118 129 0 57 -15 88 -52 111 -39 24 -72 25 -115 4z
m72 -50 c46 -18 37 -118 -12 -130 -16 -4 -30 -1 -40 9 -21 20 -19 84 3 108 19
21 24 22 49 13z"/>
<path d="M2866 589 c-37 -29 -34 -67 9 -119 40 -48 37 -65 -11 -57 -30 5 -34
3 -34 -17 0 -32 19 -46 62 -46 79 0 105 76 47 136 -38 39 -34 70 6 60 22 -6
25 -3 25 23 0 45 -57 57 -104 20z"/>
<path d="M906 486 c-4 -64 -5 -120 -1 -126 3 -5 15 -10 26 -10 15 0 19 7 20
38 0 20 4 46 8 57 6 15 10 8 16 -33 6 -44 11 -53 32 -58 28 -8 42 3 48 37 19
97 20 97 25 29 5 -61 6 -65 30 -65 l25 0 3 123 3 122 -44 0 -44 0 -13 -55 c-7
-30 -16 -52 -19 -49 -3 3 -11 27 -16 52 -10 46 -11 47 -51 50 l-41 3 -7 -115z"/>
<path d="M1168 483 c-3 -122 1 -135 37 -131 16 3 21 12 23 50 3 45 4 47 34 46
41 -1 68 32 68 82 0 53 -23 70 -97 70 l-61 0 -4 -117z m97 42 c0 -11 -8 -21
-17 -23 -14 -3 -18 3 -18 23 0 20 4 26 18 23 9 -2 17 -12 17 -23z"/>
<path d="M1350 496 c0 -101 1 -105 26 -125 38 -30 107 -29 138 2 18 18 24 39
30 97 3 41 8 75 9 76 1 1 17 -1 35 -3 l32 -5 -2 -92 -3 -91 33 -3 32 -3 1 88
c1 48 1 91 0 96 0 4 13 7 29 7 27 0 30 3 30 30 l0 30 -89 0 c-77 0 -90 -2 -94
-17 -4 -17 -5 -17 -6 0 -1 13 -10 17 -36 17 l-35 0 0 -59 c0 -111 -24 -160
-57 -115 -11 14 -12 37 -7 97 l7 77 -37 0 -36 0 0 -104z"/>
<path d="M1777 485 c-26 -64 -45 -120 -42 -125 4 -6 19 -10 34 -10 23 0 30 6
37 33 8 27 15 32 45 35 33 3 37 0 45 -30 8 -28 15 -34 43 -36 38 -4 39 -10 -7
148 l-28 95 -40 3 -40 3 -47 -116z m93 9 c0 -8 -7 -14 -15 -14 -17 0 -18 2 -9
24 7 18 24 12 24 -10z"/>
<path d="M1988 483 c-4 -82 -2 -120 6 -125 17 -11 89 -9 125 3 41 14 63 57 63
126 1 40 -5 62 -19 81 -18 25 -27 27 -95 30 l-75 3 -5 -118z m128 35 c15 -48
-16 -108 -55 -108 -11 0 -16 122 -6 132 12 11 55 -5 61 -24z"/>
<path d="M2456 484 c-8 -124 -4 -138 35 -132 22 3 25 9 29 63 l5 60 13 -41 c6
-23 12 -48 12 -57 0 -16 20 -27 51 -27 23 0 23 10 4 73 -8 28 -10 47 -4 47 14
0 38 61 31 79 -14 41 -34 51 -102 51 l-67 0 -7 -116z m98 60 c22 -8 20 -31 -3
-43 -22 -12 -31 -5 -31 26 0 24 7 27 34 17z"/>
<path d="M2656 485 c-4 -64 -4 -120 -1 -125 3 -6 40 -10 81 -10 l74 0 0 30 c0
29 -2 30 -45 30 -38 0 -45 3 -45 20 0 17 7 20 40 20 38 0 40 2 40 30 0 28 -2
30 -40 30 -29 0 -40 4 -40 15 0 11 12 15 50 15 49 0 50 1 50 30 l0 30 -79 0
-78 0 -7 -115z"/>
<path d="M65 155 c-9 -19 -27 -61 -40 -92 -14 -30 -25 -57 -25 -59 0 -2 11 -4
25 -4 17 0 29 8 37 25 15 34 65 36 70 2 3 -20 9 -22 70 -25 98 -3 126 34 72
97 -28 33 -24 56 8 45 16 -5 19 -2 16 18 -2 18 -10 24 -34 26 -61 6 -85 -55
-39 -98 35 -33 33 -54 -5 -47 -24 5 -30 3 -31 -11 -1 -9 -13 21 -28 68 -24 77
-29 85 -54 88 -23 3 -30 -2 -42 -33z m41 -52 c-10 -10 -19 5 -10 18 6 11 8 11
12 0 2 -7 1 -15 -2 -18z"/>
<path d="M326 159 c-3 -17 -6 -60 -6 -95 l0 -64 60 0 c56 0 60 2 60 23 0 20
-4 23 -35 19 -27 -3 -35 -1 -35 12 0 11 9 16 30 16 25 0 30 4 30 25 0 21 -5
25 -30 25 -43 0 -37 18 8 22 30 2 38 7 40 26 3 21 0 22 -56 22 -59 0 -60 0
-66 -31z"/>
<path d="M475 166 c-18 -27 -11 -51 27 -92 22 -25 11 -39 -22 -29 -16 5 -20 2
-20 -19 0 -24 4 -26 40 -26 31 0 43 5 55 24 15 22 15 28 1 53 -8 16 -22 35
-30 42 -20 17 -10 34 15 26 15 -5 19 -1 19 19 0 23 -4 26 -35 26 -26 0 -39 -6
-50 -24z"/>
<path d="M609 161 c-33 -33 -38 -75 -14 -120 16 -33 33 -41 80 -41 25 0 40 8
59 31 79 93 -39 216 -125 130z m85 -27 c9 -8 16 -26 16 -39 0 -23 -23 -55 -40
-55 -16 0 -40 31 -40 52 0 21 26 58 41 58 4 0 15 -7 23 -16z"/>
<path d="M780 118 c0 -40 -3 -83 -6 -95 -5 -20 -2 -23 20 -23 26 0 26 1 26 69
0 74 11 94 38 67 16 -15 15 -17 -6 -23 -20 -5 -22 -10 -16 -37 13 -61 23 -76
48 -76 l25 0 -15 42 c-13 37 -13 43 1 50 9 6 15 23 15 43 0 42 -20 55 -84 55
l-46 0 0 -72z"/>
<path d="M937 183 c-4 -3 -7 -46 -7 -95 l0 -88 54 0 c49 0 54 2 60 25 9 36 61
36 70 0 5 -18 13 -25 32 -25 19 0 24 4 20 18 -3 9 -15 52 -27 95 -21 72 -24
77 -50 77 -25 0 -30 -8 -65 -91 l-39 -91 -3 91 c-2 80 -5 91 -21 91 -10 0 -21
-3 -24 -7z m153 -68 c0 -8 -4 -15 -10 -15 -5 0 -7 7 -4 15 4 8 8 15 10 15 2 0
4 -7 4 -15z"/>
<path d="M1220 185 c0 -3 11 -28 25 -55 15 -29 25 -66 25 -90 0 -37 2 -41 23
-38 18 2 23 11 27 43 3 22 15 59 28 82 27 52 28 63 2 63 -12 0 -26 -12 -36
-32 l-16 -32 -14 32 c-10 24 -19 32 -39 32 -14 0 -25 -2 -25 -5z"/>
<path d="M1437 123 c-11 -111 -10 -123 13 -123 17 0 20 7 21 53 l1 52 12 -50
c9 -38 17 -51 33 -53 17 -3 23 6 36 50 l15 53 1 -52 c1 -46 4 -53 21 -53 19 0
20 7 20 95 l0 95 -30 0 c-25 0 -30 -5 -39 -37 -6 -21 -11 -45 -12 -53 -1 -16
-13 18 -23 63 -5 22 -12 27 -35 27 -27 0 -28 -2 -34 -67z"/>
<path d="M1656 104 c-20 -47 -36 -90 -36 -95 0 -5 11 -9 24 -9 17 0 26 7 30
25 9 36 61 36 70 0 5 -18 13 -25 31 -25 14 0 25 2 25 6 0 3 -12 45 -27 95 -25
84 -28 89 -54 89 -25 0 -30 -8 -63 -86z m68 11 c3 -9 0 -15 -9 -15 -9 0 -12 6
-9 15 4 8 7 15 9 15 2 0 5 -7 9 -15z"/>
<path d="M1817 123 c-11 -116 -10 -125 16 -121 19 3 22 10 25 52 l3 49 24 -52
c22 -47 28 -52 52 -49 l28 3 3 93 c3 87 2 92 -18 92 -18 0 -20 -6 -20 -57 l-1
-58 -30 58 c-23 45 -34 57 -53 57 -21 0 -24 -5 -29 -67z"/>
<path d="M1984 175 c-8 -20 4 -35 28 -35 20 0 21 -4 14 -70 -6 -70 -6 -70 19
-70 22 0 25 5 25 33 0 68 12 107 31 107 14 0 19 7 19 25 0 24 -2 25 -65 25
-48 0 -67 -4 -71 -15z"/>
<path d="M2136 144 c-3 -26 -6 -69 -6 -95 l0 -49 60 0 c56 0 60 2 60 23 0 20
-4 23 -35 19 -27 -3 -35 -1 -35 12 0 11 9 16 30 16 25 0 30 4 30 25 0 21 -5
25 -30 25 -43 0 -37 18 8 22 30 2 38 7 40 26 3 21 0 22 -56 22 l-59 0 -7 -46z"/>
<path d="M2280 118 c0 -40 -3 -83 -6 -95 -5 -20 -2 -23 20 -23 25 0 26 3 27
53 l0 52 27 -52 c22 -45 30 -53 54 -53 l28 0 2 80 c0 44 1 86 2 93 1 6 -9 13
-21 15 -22 3 -23 0 -24 -55 l0 -58 -26 58 c-23 50 -29 57 -54 57 l-29 0 0 -72z"/>
<path d="M2460 126 c0 -35 -3 -78 -6 -96 -7 -30 -6 -31 22 -28 l29 3 3 93 3
92 -26 0 c-24 0 -25 -2 -25 -64z"/>
<path d="M2536 153 c-3 -21 -6 -64 -6 -95 0 -51 2 -58 20 -58 17 0 20 7 21 53
l2 52 10 -52 c8 -45 13 -53 31 -53 18 0 25 10 39 58 l17 57 -5 -57 c-5 -57 -5
-58 20 -58 25 0 25 0 25 96 l0 95 -32 -3 c-29 -3 -33 -7 -43 -48 -12 -49 -19
-46 -29 13 -6 32 -10 37 -35 37 -25 0 -29 -4 -35 -37z"/>
<path d="M2736 144 c-3 -26 -6 -69 -6 -95 0 -46 2 -49 25 -49 24 0 25 2 27 70
1 39 2 80 2 93 1 15 -6 23 -20 25 -18 3 -22 -4 -28 -44z"/>
<path d="M2810 105 c0 -47 -1 -88 -2 -92 -2 -5 25 -9 60 -11 57 -3 62 -1 62
18 0 16 -6 20 -35 20 -24 0 -35 5 -35 15 0 10 10 15 30 15 25 0 30 4 30 25 0
21 -5 25 -30 25 -16 0 -30 5 -30 10 0 6 16 10 35 10 31 0 35 3 35 25 0 24 -3
25 -60 25 l-60 0 0 -85z"/>
<path d="M2956 153 c-3 -21 -6 -64 -6 -95 0 -51 2 -58 20 -58 15 0 20 7 21 28
0 15 4 35 7 45 6 14 12 9 30 -28 17 -35 27 -45 46 -45 29 0 36 20 36 118 0 65
-2 72 -20 72 -15 0 -20 -7 -20 -27 0 -16 -3 -38 -6 -51 -6 -20 -9 -17 -30 28
-18 40 -28 50 -47 50 -20 0 -25 -6 -31 -37z"/>
<path d="M3127 183 c-4 -3 -7 -15 -7 -25 0 -13 7 -18 26 -18 l25 0 -7 -70 -7
-70 26 0 c25 0 26 2 29 68 3 61 5 67 26 70 16 3 22 10 22 28 0 23 -3 24 -63
24 -35 0 -67 -3 -70 -7z"/>
<path d="M3307 179 c-27 -16 -48 -72 -41 -109 14 -66 102 -93 149 -45 19 18
25 35 25 70 0 35 -6 52 -25 70 -26 27 -75 33 -108 14z m72 -43 c17 -21 9 -77
-12 -90 -15 -9 -22 -7 -38 13 -13 15 -17 31 -13 45 14 45 41 59 63 32z"/>
</g>
</svg>
