<?xml version="1.0" standalone="no"?>
<!DOCTYPE svg PUBLIC "-//W3C//DTD SVG 20010904//EN"
 "http://www.w3.org/TR/2001/REC-SVG-20010904/DTD/svg10.dtd">
<svg version="1.0" xmlns="http://www.w3.org/2000/svg"
 width="172.000000pt" height="81.000000pt" viewBox="0 0 172.000000 81.000000"
 preserveAspectRatio="xMidYMid meet">

<g transform="translate(0.000000,81.000000) scale(0.100000,-0.100000)"
fill="#000000" stroke="none">
<path d="M501 788 c-71 -27 -142 -97 -164 -163 -38 -112 -10 -190 88 -240 54
-28 66 -30 159 -29 111 1 176 21 229 72 21 20 30 23 39 14 17 -17 43 -15 88 8
l40 20 20 -20 c24 -24 49 -25 93 -6 40 18 94 62 86 71 -4 3 -22 -3 -40 -14
-40 -25 -84 -27 -93 -6 -5 14 27 35 52 35 4 0 25 12 46 26 21 15 35 21 31 14
-6 -10 -3 -12 11 -8 48 14 49 13 46 -11 -3 -27 -30 -63 -42 -56 -7 4 -40 -37
-40 -50 0 -13 28 -3 45 15 23 26 33 25 37 -2 5 -38 40 -33 89 11 46 41 49 66
3 36 -17 -11 -30 -13 -36 -7 -19 19 -3 46 42 72 25 14 46 34 48 43 5 23 -7 21
-51 -8 l-37 -26 0 31 c0 36 -22 40 -60 10 -32 -25 -36 -25 -43 0 -11 44 -107
8 -176 -66 -53 -56 -86 -78 -107 -70 -13 5 -9 13 19 48 67 84 125 173 129 198
11 82 -137 -45 -194 -165 -20 -43 -44 -77 -72 -99 -74 -60 -102 -70 -201 -70
-105 0 -162 23 -195 77 -41 67 -14 177 58 237 86 72 252 79 323 14 27 -24 39
-77 28 -118 -11 -39 -80 -106 -109 -106 -26 0 -25 1 9 90 46 122 46 120 17
120 -14 0 -29 -8 -35 -17 -9 -17 -11 -16 -30 1 -49 45 -161 4 -202 -74 -55
-101 17 -197 116 -156 33 14 39 14 58 1 28 -20 53 -19 103 4 78 35 124 102
124 178 0 47 -4 58 -35 92 -22 24 -54 46 -82 55 -65 22 -166 20 -232 -6z m474
-143 c-26 -33 -55 -50 -39 -22 21 37 58 79 62 69 2 -6 -9 -27 -23 -47z m-335
4 c24 -43 -19 -124 -79 -149 -34 -14 -66 -2 -73 28 -8 29 18 94 47 120 34 29
90 30 105 1z m485 -68 c-3 -6 -19 -18 -36 -26 -40 -21 -38 0 3 25 33 20 45 20
33 1z"/>
<path d="M360 297 c-36 -18 -47 -63 -23 -96 25 -32 47 -37 78 -17 18 12 25 25
25 49 0 55 -38 85 -80 64z m45 -37 c11 -18 -6 -50 -26 -50 -13 0 -19 7 -19 23
0 13 3 27 7 30 10 10 31 8 38 -3z"/>
<path d="M240 281 c-18 -34 -12 -78 12 -95 28 -20 54 -20 61 -2 7 18 -1 26
-25 26 -10 0 -21 7 -24 15 -8 20 13 45 37 45 11 0 19 7 19 15 0 24 -67 20 -80
-4z"/>
<path d="M457 293 c-4 -3 -7 -30 -7 -59 0 -55 17 -82 27 -43 l6 23 9 -23 c10
-28 30 -23 39 10 l6 24 4 -23 c8 -46 24 -25 27 36 3 57 1 62 -18 62 -12 0 -24
-9 -30 -22 l-9 -23 -7 23 c-6 21 -33 30 -47 15z"/>
<path d="M582 238 c2 -38 8 -63 16 -66 7 -2 12 5 12 16 0 13 12 26 30 36 28
13 30 13 30 -3 0 -10 9 -26 20 -36 16 -15 26 -17 48 -9 23 8 27 16 30 52 3 35
7 42 24 42 18 0 20 -5 16 -44 -4 -31 -1 -46 7 -50 20 -7 25 3 25 51 0 32 4 43
15 43 8 0 15 7 15 15 0 12 -14 15 -64 15 l-65 0 -3 -42 c-4 -59 -28 -63 -28
-4 0 33 -4 46 -14 46 -8 0 -17 -6 -20 -12 -5 -10 -7 -10 -12 0 -3 6 -23 12
-45 12 l-40 0 3 -62z"/>
<path d="M901 278 c-5 -13 -16 -40 -24 -60 -19 -45 -4 -63 24 -30 21 27 35 28
49 3 8 -16 19 -19 59 -17 63 3 81 18 81 65 0 47 -14 61 -62 61 l-38 0 -1 -57
-1 -58 -18 55 c-13 41 -23 56 -39 58 -14 2 -24 -4 -30 -20z m154 -38 c0 -13
-6 -25 -12 -27 -9 -3 -13 6 -13 27 0 21 4 30 13 28 6 -3 12 -15 12 -28z"/>
<path d="M1116 284 c-26 -25 -20 -81 10 -100 57 -38 119 32 80 91 -19 29 -65
34 -90 9z m62 -41 c-3 -31 -32 -43 -41 -18 -9 23 3 45 25 45 15 0 19 -6 16
-27z"/>
<path d="M1228 243 c-3 -54 5 -78 24 -67 4 3 8 15 8 27 0 21 1 21 13 -2 19
-37 41 -40 34 -5 -3 16 -1 37 4 47 18 33 2 57 -41 57 l-38 0 -4 -57z m52 17
c0 -5 -4 -10 -10 -10 -5 0 -10 5 -10 10 0 6 5 10 10 10 6 0 10 -4 10 -10z"/>
<path d="M1328 243 c-4 -64 3 -74 47 -71 37 4 40 29 5 39 -24 7 -24 7 -2 8 15
1 22 7 22 20 0 12 -8 21 -22 24 -20 4 -19 4 5 6 45 2 35 31 -12 31 l-39 0 -4
-57z"/>
<path d="M1427 293 c-12 -11 -8 -40 8 -53 19 -16 19 -30 -1 -30 -23 0 -13 -34
12 -38 11 -2 27 4 34 13 11 13 11 20 -1 43 -7 15 -15 30 -17 35 -2 4 3 7 12 7
9 0 16 7 16 15 0 15 -50 22 -63 8z"/>
<path d="M113 93 c-17 -6 -17 -35 -1 -51 10 -10 10 -15 -2 -22 -12 -7 -18 -1
-28 30 -18 52 -43 53 -62 3 -8 -21 -16 -41 -18 -45 -7 -16 21 -7 34 10 13 16
15 16 25 0 6 -12 22 -18 45 -18 39 0 54 21 33 46 -10 13 -10 17 0 24 8 4 10
13 7 19 -8 12 -13 12 -33 4z"/>
<path d="M240 85 c-10 -12 -9 -20 4 -40 14 -22 15 -25 1 -25 -8 0 -15 -4 -15
-10 0 -17 40 -11 47 6 3 9 1 25 -5 35 -8 13 -8 19 0 21 12 4 2 28 -11 28 -5 0
-14 -7 -21 -15z"/>
<path d="M312 84 c-39 -27 -23 -84 23 -84 43 0 61 53 29 84 -19 20 -24 20 -52
0z m36 -36 c-2 -13 -7 -23 -13 -23 -5 0 -11 10 -13 23 -2 15 2 22 13 22 11 0
15 -7 13 -22z"/>
<path d="M1652 84 c-24 -17 -29 -53 -10 -72 15 -15 51 -15 66 0 19 19 15 66
-7 78 -25 13 -22 13 -49 -6z m41 -27 c7 -19 -8 -41 -22 -33 -16 10 -14 46 3
46 8 0 16 -6 19 -13z"/>
<path d="M160 45 c0 -43 1 -45 30 -45 17 0 30 5 30 10 0 6 -7 10 -15 10 -8 0
-15 5 -15 10 0 6 7 10 15 10 21 0 19 18 -2 23 -17 4 -17 5 0 6 30 2 18 21 -13
21 -29 0 -30 -2 -30 -45z"/>
<path d="M390 46 c0 -45 19 -67 21 -23 l0 22 9 -22 c5 -13 14 -23 20 -23 5 0
10 10 9 23 0 12 1 31 3 42 2 16 -3 21 -29 23 -33 3 -33 3 -33 -42z m40 14 c0
-5 -4 -10 -10 -10 -5 0 -10 5 -10 10 0 6 5 10 10 10 6 0 10 -4 10 -10z"/>
<path d="M466 68 c-13 -50 -7 -68 20 -68 15 0 33 8 40 18 13 16 15 16 28 -1
26 -33 35 -19 19 28 -19 57 -38 57 -63 3 l-20 -43 0 43 c0 45 -14 57 -24 20z"/>
<path d="M620 71 c5 -11 10 -31 10 -45 0 -16 6 -26 15 -26 8 0 15 9 15 20 0
12 7 32 16 45 13 21 14 25 2 25 -8 0 -19 -5 -26 -12 -9 -9 -12 -9 -12 0 0 7
-7 12 -15 12 -12 0 -13 -4 -5 -19z"/>
<path d="M720 68 c0 -13 -3 -33 -6 -45 -6 -20 -3 -23 22 -21 16 1 32 7 36 13
5 6 8 6 8 -2 0 -20 57 -16 65 5 6 16 7 16 19 0 7 -10 25 -18 40 -18 20 0 26 5
27 23 l0 22 11 -22 c16 -34 36 -28 44 12 3 19 10 35 15 35 5 0 9 -16 9 -35 0
-24 5 -35 15 -35 10 0 15 11 15 35 0 19 5 35 10 35 6 0 10 5 10 10 0 6 -22 10
-50 10 -41 0 -50 -3 -50 -17 -1 -17 -1 -17 -11 0 -19 32 -39 20 -39 -24 0 -48
-15 -44 -24 6 -9 49 -39 47 -59 -2 l-16 -38 0 38 c-1 30 -5 37 -21 37 -12 0
-20 -7 -20 -17 -1 -17 -1 -17 -11 0 -14 25 -39 21 -39 -5z"/>
<path d="M1070 68 c0 -13 -3 -33 -6 -45 -6 -21 -3 -23 30 -23 20 0 36 5 36 10
0 6 -9 10 -20 10 -11 0 -20 5 -20 10 0 6 7 10 15 10 21 0 19 18 -2 23 -14 4
-12 5 5 6 33 2 27 21 -8 21 -24 0 -30 -4 -30 -22z"/>
<path d="M1140 45 c0 -45 19 -66 21 -22 l0 22 11 -23 c6 -12 19 -22 30 -22 15
0 18 8 18 45 0 33 -4 45 -15 45 -8 0 -15 -8 -15 -17 -1 -17 -1 -17 -11 0 -20
34 -39 20 -39 -28z"/>
<path d="M1230 45 c0 -25 5 -45 10 -45 6 0 10 10 10 23 0 12 3 32 6 45 5 16 2
22 -10 22 -12 0 -16 -10 -16 -45z"/>
<path d="M1266 49 c-6 -40 2 -68 11 -41 4 10 8 10 20 1 11 -10 16 -10 23 0 6
11 8 11 12 0 8 -22 16 -7 24 39 6 38 5 42 -14 42 -11 0 -23 -6 -26 -12 -5 -10
-7 -10 -12 0 -12 26 -32 11 -38 -29z"/>
<path d="M1370 61 c0 -16 -3 -36 -6 -45 -4 -11 -1 -16 10 -16 12 0 16 10 16
45 0 25 -4 45 -10 45 -5 0 -10 -13 -10 -29z"/>
<path d="M1400 45 l0 -45 50 1 c44 1 50 4 51 23 0 21 1 21 11 -2 13 -27 38
-29 38 -3 0 26 10 51 21 51 5 0 9 -16 9 -35 0 -24 5 -35 15 -35 10 0 15 11 15
35 0 19 5 35 10 35 6 0 10 5 10 10 0 6 -22 10 -50 10 -45 0 -50 -2 -51 -22 l0
-23 -9 22 c-14 34 -38 29 -42 -9 -2 -25 -8 -34 -25 -36 -13 -2 -23 1 -23 7 0
6 7 11 15 11 21 0 19 18 -2 23 -14 4 -12 5 5 6 36 2 25 21 -13 21 -35 0 -35 0
-35 -45z"/>
</g>
</svg>
